# xmcd
# Copyright (C) 1995-1998 Ti Kan
#
# Track frame offsets:
#       150
#       37354
#       77617
#       99117
#       140187
#       160029
#       188685
#       240362
#       260733
#       296333
#       323158
#
# Disc length: 4782 seconds
#
# Revision: 0
# Processed by: cddbd v1.5.2PL0 Copyright (c) Steve Scherf et al.
# Submitted via: CD-Transfer v1.0
#
DISCID=9212ac0b
DTITLE=Rock Blues - 
DYEAR=1900
DGENRE=
TTITLE0=Guy, Buddy Five Long Years
TTITLE1=Bell, Chris and The 100% Blues Elevator To Heaven
TTITLE2=Stapleton, Chris Tennessee Whiskey
TTITLE3=Coleman, Gary B.b. Sky Is Crying, The (C)
TTITLE4=Hooker, John Lee 6 Rbonnie Raitt I'm In The Mood
TTITLE5=Taylor, Melvin Blue Jeans Blues (C)
TTITLE6=Griffin, Mike Blues Ain't Never Gonna Die
TTITLE7=Foster, Ruthie War Pigs (C)
TTITLE8=Nortons, The Married To The Blues
TTITLE9=Smokehouse Cadillac In The Swamp
TTITLE10=Trout, Walter Ft. Joe Bonamassa We're All In This Together
EXTD=
EXTT0=
EXTT1=
EXTT2=
EXTT3=
EXTT4=
EXTT5=
EXTT6=
EXTT7=
EXTT8=
EXTT9=
EXTT10=
PLAYORDER=
